<?xml version="1.0" encoding="UTF-8"?>
<svg xmlns="http://www.w3.org/2000/svg" viewBox="0 0 24 24" fill="#aaaaaa">
  <path
    d="M12 2C6.48 2 2 6.48 2 12s4.48 10 10 10 10-4.48 10-10S17.52 2 12 2zm0 18c-4.41 0-8-3.59-8-8s3.59-8 8-8 8 3.59 8 8-3.59 8-8 8zm2-1.83V8.03c0-.55-.45-1-1-1h-2c-.55 0-1 .45-1 1v.96V14c0 .09-.04.18-.1.24l-.11.11-1.51 1.51c-.19.19-.29.44-.29.71 0 .55.45 1 1 1.02h.01c.23 0 .44-.09.62-.23l1.7-1.28c.25-.19.4-.49.4-.81V8.03h1.42v7.93c0 .3-.15.59-.42.79l-1.28.97c-.17.13-.28.32-.3.54-.03.45.3.84.74.84.28 0 .55-.12.72-.34l1.45-1.46c.37-.36.59-.86.59-1.39z" />
</svg>