<svg
  xmlns="http://www.w3.org/2000/svg"
  shape-rendering="geometricPrecision"
  text-rendering="geometricPrecision"
  image-rendering="optimizeQuality"
  fill-rule="evenodd"
  clip-rule="evenodd"
  viewBox="0 0 492 512.324"
>
  <circle fill="#F33" cx="231.181" cy="231.181" r="231.181" />
  <path
    fill="#B22424"
    d="M437.687 127.171C471.6 167.894 492 220.259 492 277.396c0 129.746-105.183 234.928-234.928 234.928-103.431 0-191.249-66.843-222.619-159.684 40.74 65.851 113.605 109.722 196.728 109.722 127.682 0 231.181-103.499 231.181-231.181 0-37.412-8.899-72.749-24.675-104.01z"
  />
  <path
    fill="#fff"
    fill-rule="nonzero"
    d="M287.087 196.137c-18.409.02-36.062.372-47.758 5.774-10.028 4.636-16.801 14.674-17.388 35.378l-.092 1.321c-2.01 18.276-8.125 35.098-19.75 47.059-10.65 10.956-25.248 17.465-44.585 16.99l-23.264.051c-8.942 0-16.195-7.253-16.195-16.194 0-8.942 7.253-16.195 16.195-16.195h23.264v.056l.444.005c9.564.286 16.378-2.499 20.984-7.237 6.09-6.264 9.457-16.318 10.768-27.81 1.259-35.005 15.281-53.159 36.082-62.774 17.99-8.308 39.321-8.788 61.284-8.814l-.004-24.019a7.643 7.643 0 0 1 7.64-7.641c2.112 0 4.025.857 5.407 2.245l41.632 36.5c3.142 2.795 3.422 7.626.627 10.768l-.693.688-41.903 36.741c-3.142 2.795-7.972 2.514-10.767-.628a7.58 7.58 0 0 1-1.923-5.07l-.005-17.194zm13.032 47.518 41.632 36.5c3.142 2.795 3.422 7.626.627 10.768l-.693.688-41.903 36.74c-3.142 2.796-7.972 2.515-10.767-.627a7.58 7.58 0 0 1-1.923-5.07l-.005-18.388c-7.866-.01-15.736-.087-23.928-.617-9.262-.597-18.235-1.831-26.676-4.269-8.559-2.479-13.486-11.436-11.007-19.995 2.479-8.559 11.435-13.486 19.994-11.007 5.734 1.658 12.461 2.535 19.709 3.004 6.555.423 14.129.485 21.897.495l-.004-22.826a7.643 7.643 0 0 1 7.64-7.641c2.112 0 4.025.857 5.407 2.245zm-118.29-74.496c8.345 3.107 12.594 12.405 9.487 20.75-3.106 8.344-12.404 12.593-20.749 9.487-1.551-.576-3.402-1.035-5.555-1.352a39.85 39.85 0 0 0-7.054-.413l-.444.006v.056H134.25c-8.942 0-16.195-7.254-16.195-16.195 0-8.942 7.253-16.195 16.195-16.195h23.264c4.402-.061 8.467.179 12.181.73a60.09 60.09 0 0 1 12.134 3.126z"
  />
</svg>
